<?xml version="1.0" encoding="UTF-8"?>
<svg id="Layer_2" data-name="Layer 2" xmlns="http://www.w3.org/2000/svg" viewBox="0 0 213 206">
  <defs>
    <style>
      .cls-1, .cls-2 {
        fill: none;
      }

      .cls-3 {
        fill: #fff;
      }

      .cls-4 {
        fill: #962423;
      }

      .cls-2 {
        stroke: #fff;
      }
    </style>
  </defs>
  <g id="Layer_1-2" data-name="Layer 1">
    <g id="Rectangle_380" data-name="Rectangle 380">
      <rect class="cls-1" width="186" height="186" rx="25" ry="25"/>
      <rect class="cls-2" x=".5" y=".5" width="185" height="185" rx="24.5" ry="24.5"/>
    </g>
    <g id="Path_2720" data-name="Path 2720">
      <path class="cls-4" d="m188,205.5H52c-3.31,0-6.52-.65-9.54-1.93-2.92-1.23-5.54-3-7.79-5.25-2.25-2.25-4.02-4.87-5.25-7.79-1.28-3.02-1.93-6.23-1.93-9.54V45c0-3.31.65-6.52,1.93-9.54,1.23-2.92,3-5.54,5.25-7.79s4.87-4.02,7.79-5.25c3.02-1.28,6.23-1.93,9.54-1.93h136c3.31,0,6.52.65,9.54,1.93,2.92,1.23,5.54,3,7.79,5.25,2.25,2.25,4.02,4.87,5.25,7.79,1.28,3.02,1.93,6.23,1.93,9.54v136c0,3.31-.65,6.52-1.93,9.54-1.23,2.92-3,5.54-5.25,7.79-2.25,2.25-4.87,4.02-7.79,5.25-3.02,1.28-6.23,1.93-9.54,1.93Z"/>
      <path class="cls-3" d="m52,21c-3.24,0-6.38.63-9.34,1.89-2.86,1.21-5.42,2.94-7.63,5.14-2.2,2.2-3.94,4.77-5.14,7.63-1.25,2.96-1.89,6.1-1.89,9.34v136c0,3.24.63,6.38,1.89,9.34,1.21,2.86,2.94,5.42,5.14,7.63,2.2,2.2,4.77,3.94,7.63,5.14,2.96,1.25,6.1,1.89,9.34,1.89h136c3.24,0,6.38-.63,9.34-1.89,2.86-1.21,5.42-2.94,7.63-5.14,2.2-2.2,3.94-4.77,5.14-7.63,1.25-2.96,1.89-6.1,1.89-9.34V45c0-3.24-.63-6.38-1.89-9.34-1.21-2.86-2.94-5.42-5.14-7.63-2.2-2.2-4.77-3.94-7.63-5.14-2.96-1.25-6.1-1.89-9.34-1.89H52m0-1h136c13.81,0,25,11.19,25,25v136c0,13.81-11.19,25-25,25H52c-13.81,0-25-11.19-25-25V45c0-13.81,11.19-25,25-25Z"/>
    </g>
  </g>
</svg>