<svg xmlns="http://www.w3.org/2000/svg" width="238.792" height="122.681" viewBox="0 0 238.792 122.681">
  <g id="Layer_2" data-name="Layer 2" transform="translate(0 5)">
    <g id="Layer_1" data-name="Layer 1">
      <g id="Group_4090" data-name="Group 4090">
        <g id="Layer_2-2" data-name="Layer 2" transform="translate(76.787)">
          <g id="Layer_1-2" data-name="Layer 1-2">
            <path id="Path_2624" data-name="Path 2624" d="M233.284,38.3a63.8,63.8,0,0,0-7.421-6.076c-.35-.325-.639-.613-.9-.886a22.982,22.982,0,0,0-4.329-3.566c3.308-4.679,5.364-12.095,3.5-17.093a8.615,8.615,0,0,0-7.493-5.612c-.3-.036-.6-.057-.907-.077-.082,0-.17,0-.247-.005h-.082c-.185,0-.376-.005-.562,0-.134,0-.268.01-.4.015l-.474.031-.443.046c-.134.015-.273.036-.4.052a4.545,4.545,0,0,0-.474.082c-.108.021-.211.041-.34.072l-.052.01c-.155.031-.314.062-.459.1-.052.01-.1.026-.155.041a19.891,19.891,0,0,0-8.224,4.617,5.228,5.228,0,0,0-1.371,6.261,5.277,5.277,0,0,0,2.061,2.046c.072.046.144.1.211.139.041.026.083.052.124.082a14.618,14.618,0,0,1,2.133,1.5c.309.289.459.541.448.742-.005.129-.108.742-1.34,1.835a43.115,43.115,0,0,0-6.333-.943c-11.873-.9-25.034,2.86-35.206,10.049-6.478,4.576-11.687,10.61-14.29,16.562a7.945,7.945,0,0,0,.232,7.6,7.821,7.821,0,0,0,4.03,3.113,55.257,55.257,0,0,0-2.891,12.821,36.524,36.524,0,0,0,3.046,18.866,46.058,46.058,0,0,0,5.792,11.131c2.288,3.277,5.7,6.3,8.477,9.286,2.571,2.772,5.638,5.354,9.41,6.21a21.751,21.751,0,0,0,7.853-.057,97.987,97.987,0,0,0,14.305-3.159c4.756-1.433,8.724-3.855,12.837-6.534.531-.35,1.1-.727,1.752-1.2,4.164-2.01,7.374-5.6,10.2-8.766l.928-1.036a53.116,53.116,0,0,0,4.844-6.091c.273-.407.588-.83.917-1.278a19.468,19.468,0,0,0,2.19-3.447c3.6-.144,7.3-3.18,8.477-4.829,3.308-4.617,4.154-11.419,2.515-20.216-1.675-8.987-5.751-16.959-11.487-22.442V38.3Z" transform="translate(-149.018 -4.986)" fill="#fff" stroke="#fff" stroke-miterlimit="10" stroke-width="10"/>
          </g>
        </g>
        <g id="Group_4081" data-name="Group 4081" transform="translate(80.951 2.108)">
          <path id="Path_2625" data-name="Path 2625" d="M234.65,41.126a59.663,59.663,0,0,0-6.828-5.849c-.325-.319-.587-.587-.824-.85A20.983,20.983,0,0,0,223.014,31c3.046-4.5,4.937-11.641,3.226-16.444a7.991,7.991,0,0,0-6.895-5.4c-.278-.036-.551-.057-.835-.072-.077,0-.154,0-.227-.005h-.077c-.17,0-.345-.005-.515,0-.124,0-.247.01-.371.015l-.438.031-.407.046c-.124.015-.252.036-.371.052-.149.021-.294.046-.438.077l-.314.067-.046.01c-.144.031-.289.062-.423.1-.046.01-.093.026-.144.041a18.153,18.153,0,0,0-7.57,4.442,5.188,5.188,0,0,0-1.263,6.024,4.964,4.964,0,0,0,1.9,1.969c.067.046.134.093.2.134.036.026.077.052.113.077a14.057,14.057,0,0,1,1.963,1.448,1.069,1.069,0,0,1,.412.711c-.005.124-.1.711-1.232,1.762a37.842,37.842,0,0,0-5.828-.907c-10.925-.861-23.04,2.757-32.4,9.673-5.962,4.406-10.755,10.214-13.151,15.934a7.955,7.955,0,0,0,.211,7.307,7.277,7.277,0,0,0,3.71,3,54.993,54.993,0,0,0-2.659,12.337,36.6,36.6,0,0,0,2.8,18.155,45.316,45.316,0,0,0,5.328,10.714c2.108,3.159,5.251,6.065,7.8,8.936,2.365,2.664,5.189,5.153,8.657,5.978a19.044,19.044,0,0,0,7.225-.057,86.773,86.773,0,0,0,13.166-3.04c4.375-1.376,8.029-3.705,11.811-6.287.49-.335,1.01-.7,1.613-1.149,3.834-1.932,6.787-5.385,9.389-8.436.289-.335.572-.67.855-1a50.428,50.428,0,0,0,4.457-5.864c.252-.392.541-.8.845-1.226a18.956,18.956,0,0,0,2.015-3.319c3.308-.139,6.715-3.056,7.8-4.648,3.046-4.442,3.824-10.987,2.314-19.453-1.541-8.647-5.292-16.315-10.569-21.6Z" transform="translate(-157.099 -9.076)" fill="#86261a" style="mix-blend-mode: multiply;isolation: isolate"/>
          <path id="Path_2626" data-name="Path 2626" d="M197.477,55.5a3.086,3.086,0,0,1-2.438,2.077c-6.235,1.9-12.038,4.653-16.284,10.456-1.113,1.525-2.371,1.711-3.679.417s-.639-2.551.314-3.654a37.122,37.122,0,0,1,19.02-11.935C197.07,52.162,198.26,53.3,197.477,55.5Z" transform="translate(-165.459 -30.197)" fill="#f8f7f2"/>
          <path id="Path_2627" data-name="Path 2627" d="M232,54.08c-1.335-.587-3.169-.66-2.391-2.664.964-2.484,2.994-2.066,4.8-1.536,1.154.34,2.927.443,2.206,2.515C235.65,55.141,233.578,54.219,232,54.08Z" transform="translate(-192.151 -28.657)" fill="#f6f2ed"/>
        </g>
        <g id="Group_4085" data-name="Group 4085" transform="translate(0 37.347)">
          <g id="Group_4082" data-name="Group 4082" transform="translate(81.833 3.597)">
            <path id="Path_2628" data-name="Path 2628" d="M168.456,156.6a12.2,12.2,0,0,1-1.886-.149,6.735,6.735,0,0,1-5.5-4.04,25.227,25.227,0,0,1-1.747-6.9.261.261,0,0,0-.01-.062,80.984,80.984,0,0,1-.083-17.284,65.873,65.873,0,0,1,2.484-14.243c.01-.026.015-.052.026-.077.1-.314.222-.629.345-.948.113-.3.222-.582.294-.824a1.138,1.138,0,0,1,.041-.124,7.107,7.107,0,0,1,5.88-4.865,11.875,11.875,0,0,1,2.077-.186,12.209,12.209,0,0,1,8.255,3.391c.046.041.088.082.134.124a15.19,15.19,0,0,1,7.148-1.9h.232a10.527,10.527,0,0,1,10.446,7.627c.01.041.026.082.036.124a16.182,16.182,0,0,1-.83,10.94,22.176,22.176,0,0,1-5.1,7.539,11.141,11.141,0,0,0,1.938,1.515c.067.041.129.077.2.124.165.113.366.242.495.32a6.941,6.941,0,0,1,4.468,5.081,2.456,2.456,0,0,1,.062.263,9.664,9.664,0,0,1-.371,5.22.214.214,0,0,1-.021.051,8.9,8.9,0,0,1-8.4,5.864,9.825,9.825,0,0,1-2.463-.32,14.138,14.138,0,0,1-6.282-3.458,1.852,1.852,0,0,1-.149-.134,11.4,11.4,0,0,1-4.808,5.323,13.23,13.23,0,0,1-6.89,2.015Z" transform="translate(-158.81 -95.326)" fill="#b6b2b3"/>
            <path id="Path_2629" data-name="Path 2629" d="M229.773,180.44a8.167,8.167,0,1,1,0-16.33,8.168,8.168,0,1,1,0,16.33Z" transform="translate(-189.165 -123.055)" fill="#b6b2b3"/>
            <path id="Path_2630" data-name="Path 2630" d="M273.682,155.029a7.617,7.617,0,0,1-5.246-2.061,13.7,13.7,0,0,1-3.7-6.23l-.031-.093a41.915,41.915,0,0,1-1.68-12.651v-.067a41.832,41.832,0,0,1,2.448-14.743c.015-.036.026-.072.041-.108a19.129,19.129,0,0,1,2.273-4.159c.026-.036.057-.072.083-.108a8.116,8.116,0,0,1,6.545-3.37,9.029,9.029,0,0,1,2.52.376,8.446,8.446,0,0,1,6.282,6c.407-.51.824-1.01,1.247-1.494.01-.015.026-.026.036-.041A16.483,16.483,0,0,1,289.863,112a8.684,8.684,0,0,1,3.849-.835c3.272,0,7.483,1.639,8.992,5.241a3.1,3.1,0,0,1,.113.309,6.569,6.569,0,0,1,.232,3.236,4.173,4.173,0,0,1-.15.618,46.391,46.391,0,0,0-1.762,16.166,24.217,24.217,0,0,0,1.582,8.116,5.2,5.2,0,0,1,.026,4.334,7.767,7.767,0,0,1-4.659,4.576,16.105,16.105,0,0,1-5.447.922,14.482,14.482,0,0,1-2.159-.155,8.149,8.149,0,0,1-5.942-3.772,14.254,14.254,0,0,1-1.814-3.88c-.283.7-.562,1.391-.825,2.077l-.031.077a8.756,8.756,0,0,1-6.256,5.771.152.152,0,0,0-.046.01,9.35,9.35,0,0,1-1.891.206Z" transform="translate(-209.323 -97.396)" fill="#b6b2b3"/>
            <path id="Path_2631" data-name="Path 2631" d="M355.192,155.573a20.337,20.337,0,0,1-7.992-1.592c-.021-.01-.041-.015-.062-.026-3.777-1.7-6.8-5.112-8.735-9.868a34.5,34.5,0,0,1-2.35-12.388,49.015,49.015,0,0,1,1.778-14.594,18.944,18.944,0,0,1,1.974-4.437c.052-.082.108-.17.165-.247a6.129,6.129,0,0,1,4.406-2.736,20.39,20.39,0,0,1,2.159-.124,11.645,11.645,0,0,1,8.049,2.9c.057.052.113.108.17.165.217.216.412.433.593.649a12.2,12.2,0,0,1,4.571-2.752c.026-.01.046-.015.072-.026a15.461,15.461,0,0,1,4.932-.866c.386,0,.778.015,1.165.051a6.271,6.271,0,0,1,4.952,3.169c.041.067.077.134.118.206a32.131,32.131,0,0,1,3.6,13.135c1.139,13.548-2.705,23.277-10.817,27.4a19.624,19.624,0,0,1-8.75,1.979Zm.613-23.21a20.571,20.571,0,0,0,.386,2.566c.016-.2.026-.412.026-.629v-.16a36.336,36.336,0,0,0-.417-6.926,25.931,25.931,0,0,0-.057,4.55c.021.2.041.392.067.6Z" transform="translate(-244.713 -96.615)" fill="#b6b2b3"/>
            <path id="Path_2632" data-name="Path 2632" d="M420.872,141.965c-.165,0-.325,0-.49-.01h-.041c-4.215-.17-7.992-2.154-11.224-5.9a24.413,24.413,0,0,1-5.086-11.11c-.01-.036-.015-.077-.026-.113a39.058,39.058,0,0,1-.68-5.87,47.426,47.426,0,0,1,.057-6.895c-.041-.026-.082-.051-.118-.072-.077-.046-.15-.1-.221-.149a6,6,0,0,1-2.572-4.483,5.873,5.873,0,0,1,1.958-4.684c.01-.01.021-.015.026-.026a8.268,8.268,0,0,1,3.082-1.809,56.2,56.2,0,0,1,3.829-9.977,11.269,11.269,0,0,1,10.306-6.431,11.446,11.446,0,0,1,2.107.191c.067.01.134.026.2.041a11.4,11.4,0,0,1,7.6,5.22c.01.016.021.036.031.052A7.324,7.324,0,0,1,429.524,98a21.835,21.835,0,0,0-1.742,3.561,1.508,1.508,0,0,1,.15.1,6.227,6.227,0,0,1,3.082,5.3c0,.16-.01.32-.026.479a5.7,5.7,0,0,1-2.9,4.509,4.53,4.53,0,0,1-.5.247,12.814,12.814,0,0,1-2.3.691,33.712,33.712,0,0,0,.191,7.245h.139a5.237,5.237,0,0,1,2.52.675,5.819,5.819,0,0,1,2.154,1.768,12.126,12.126,0,0,1-.969,16.1,11.671,11.671,0,0,1-8.446,3.288Z" transform="translate(-275.933 -84.44)" fill="#b6b2b3"/>
          </g>
          <g id="Group_4083" data-name="Group 4083" transform="translate(16.992 4.591)">
            <path id="Path_2633" data-name="Path 2633" d="M70.348,151.475c-.108,0-.216,0-.33-.005-4.993-.18-7.8-2.092-10.476-4.494a14.165,14.165,0,0,1-4.329-1.062,59.6,59.6,0,0,1-5.906-3.128l-.876-.505a8.287,8.287,0,0,1-2.236-1.757c-.1-.1-.211-.227-.371-.386q-.309-.309-.572-.618a21.652,21.652,0,0,1-5.627-.721,10.9,10.9,0,0,1-2.963-1.293,6.006,6.006,0,0,1-.129-10.579,8.789,8.789,0,0,1,1.448-.794c-.088-.088-.175-.175-.258-.268a18.39,18.39,0,0,1-4.164-7.312A13.529,13.529,0,0,1,35.641,106.6c1.737-2.252,4.37-2.6,5.787-2.788l.082-.01a19.782,19.782,0,0,1,2.571-.175,18.36,18.36,0,0,1,3.453.33,18.29,18.29,0,0,1,5.292,1.68,18.734,18.734,0,0,1,3.839,2.474A10,10,0,0,1,61.02,107a5.887,5.887,0,0,1,5.292,2.84,5.505,5.505,0,0,1,.737,3.123,5.425,5.425,0,0,1,1.623,1.979,6.008,6.008,0,0,1-.83,6.256,10.354,10.354,0,0,1-3.8,3.035,11.005,11.005,0,0,1-2.7.907c-.088.222-.165.464-.247.721a4.607,4.607,0,0,0-.211,1.232,7.7,7.7,0,0,0,2.1,1.113,17.761,17.761,0,0,0,4.458.428,14.7,14.7,0,0,0,2.824-.2,9.42,9.42,0,0,0,4.385-2.386c2.329-2.3,3-4.643,2.334-8.1a6.085,6.085,0,0,0-.922-1.634c-.222-.33-.474-.7-.721-1.1-.134-.216-.361-.577-.469-.706-.387-.3-.716-.6-1-.866-.211-.2-.453-.412-.587-.51-.093-.046-.33-.144-.505-.216a11.561,11.561,0,0,1-1.814-.876,16.315,16.315,0,0,1-4.442-23.055,6.064,6.064,0,0,1,5.03-2.618,7.621,7.621,0,0,1,1.68.2,17.6,17.6,0,0,1,5.349,2.087,5.228,5.228,0,0,1,1.1-.119,6.9,6.9,0,0,1,2.8.675l.155.067a11.561,11.561,0,0,1,2.479,1.345A23.379,23.379,0,0,1,90.522,96a4.338,4.338,0,0,1,3.607,2.34c.134.134.289.289.443.474a17.449,17.449,0,0,1,1.659,2.386,52.787,52.787,0,0,1,2.618,5.241l.16.356a24.736,24.736,0,0,1,2.236,8.25,22.02,22.02,0,0,1-.289,5.978,26.539,26.539,0,0,1-3.051,7.467A35.682,35.682,0,0,1,89.26,139.35a34.133,34.133,0,0,1-12.584,6.277,5.766,5.766,0,0,1-.85,3.056,6.193,6.193,0,0,1-5.462,2.793h0Z" transform="translate(-32.984 -86.37)" fill="#b6b2b3"/>
            <path id="Path_2634" data-name="Path 2634" d="M103.271,119.478a20.642,20.642,0,0,0-1.86-6.8,54.718,54.718,0,0,0-2.556-5.174,13.115,13.115,0,0,0-1.242-1.8c-.263-.314-.984-.824-.984-1.278,0,2.376.088,4.427-1,6.617.3-5.859-2.5-9.734-6.725-12.831a7.591,7.591,0,0,0-1.567-.83,2.842,2.842,0,0,0-1.51-.392c-.639.16-.026,1.067-.567,1.536a12.35,12.35,0,0,0-6.6-3.633,1.933,1.933,0,0,0-2.293.763,11.984,11.984,0,0,0,3.226,16.779c.773.474,1.7.665,2.453,1.175.675.459,1.247,1.092,1.9,1.6a6.607,6.607,0,0,1,1.438,1.8c.866,1.391,1.9,2.551,2.221,4.2.922,4.746-.1,8.611-3.545,12.012a13.663,13.663,0,0,1-6.4,3.509c-2.2.541-7.683.412-9.807-.366a11.978,11.978,0,0,1-3.36-1.835,4.2,4.2,0,0,1-1.02-1c-.835-1.386-.624-3.38-.165-4.865a13.779,13.779,0,0,1,.716-1.876,3.759,3.759,0,0,1,.68-1.051,4.986,4.986,0,0,1,.788-.6,1.012,1.012,0,0,0,.119-.088,5.849,5.849,0,0,0,2.9-.644c1.922-.928,3.092-2.494,2.607-3.494s-2.432-1.062-4.36-.129a5.641,5.641,0,0,0-2.4,2.015c-.809.618-1.932-.531-1.134-1.232a8.372,8.372,0,0,1,1.69-1.1,6.6,6.6,0,0,0,1.654-.7c1.85-1.067,2.9-2.716,2.345-3.674s-2.5-.876-4.354.191a6.628,6.628,0,0,0-1.644,1.314.6.6,0,0,1-.84-.041,11.839,11.839,0,0,0-4.792-3.947,13.871,13.871,0,0,0-4.117-1.3,14.15,14.15,0,0,0-4.72-.134c-1.077.144-2.345.294-3,1.149a9.259,9.259,0,0,0-1.371,8.013,14.226,14.226,0,0,0,3.205,5.653,18.433,18.433,0,0,0,3.092,1.948c.732.464.783,1.654.778,2.638a2.132,2.132,0,0,1-.206,1.041c-.423.639-1.433.613-2.108.7a13.622,13.622,0,0,0-3.489,1.273c-1.582,1.072-1.6,2.3.015,3.324a6.638,6.638,0,0,0,1.788.773,24.617,24.617,0,0,0,7.529.5,1.782,1.782,0,0,0-.268.484c-.093.469.541,1.149.85,1.453a5.794,5.794,0,0,0,1.711,1.458A68.5,68.5,0,0,0,63.314,146c2.376,1.031,4.076.5,4.854,1.221,2.721,2.525,4.6,3.844,8.384,3.983,2.072.077,2.644-1.185,1.7-3.066-.433-.861-1.474-.974-1.644-2.046.577-.113,4.169-.278,4.72-.428a30.547,30.547,0,0,0,11.564-5.617,31.149,31.149,0,0,0,7.591-9.611,22.2,22.2,0,0,0,2.571-6.174,18.123,18.123,0,0,0,.222-4.8Z" transform="translate(-38.173 -90.456)" fill="#b6b2b3"/>
            <ellipse id="Ellipse_2" data-name="Ellipse 2" cx="1.17" cy="1.17" rx="1.17" ry="1.17" transform="translate(12.783 24.864)" fill="#b6b2b3"/>
          </g>
          <g id="vHPzLs.tif">
            <g id="Group_4084" data-name="Group 4084">
              <path id="Path_2635" data-name="Path 2635" d="M12.527,106.735a9.39,9.39,0,0,1-4.839-1.391,11.464,11.464,0,0,1-3.891-4,14.162,14.162,0,0,1-1.247-2.7,13.684,13.684,0,0,1-.644-2.68A6.183,6.183,0,0,1,.674,94.136,7.768,7.768,0,0,1,2.849,85a11.875,11.875,0,0,1,4.287-2.257c.484-.149.979-.278,1.484-.381a12.1,12.1,0,0,1,.835-2c.046-.088.093-.175.144-.258,0,0-.021.036-.036.067a4.958,4.958,0,0,1,4.123-2.7q.255-.015.495-.015A6.844,6.844,0,0,1,18.3,78.841a5.275,5.275,0,0,1,.943.917,4.713,4.713,0,0,1,.979,3.834,11.077,11.077,0,0,1,1.371.819,7.965,7.965,0,0,1,3.463,5.2,7.571,7.571,0,0,1-.727,4.911,6.259,6.259,0,0,1-1.051,1.438c-.046.3-.1.593-.16.891a14.478,14.478,0,0,1-1.082,3.257,14.266,14.266,0,0,1-1.2,2.077,11.54,11.54,0,0,1-2.5,2.6,9.906,9.906,0,0,1-2.618,1.412,9.247,9.247,0,0,1-3.1.551h-.088Z" transform="translate(-0.009 -77.46)" fill="#b6b2b3"/>
              <path id="Path_2636" data-name="Path 2636" d="M16.849,90.362c.649.088,1.283.155,1.907.268a9.1,9.1,0,0,1,3.633,1.4,3.728,3.728,0,0,1,1.675,2.4,3.236,3.236,0,0,1-.283,2.123,1.616,1.616,0,0,1-1.252.892c-.1.015-.139.057-.139.149v.521a11.068,11.068,0,0,1-.237,1.927,10.408,10.408,0,0,1-.758,2.293,9.326,9.326,0,0,1-.819,1.422,7.145,7.145,0,0,1-1.556,1.623,5.342,5.342,0,0,1-1.474.794,4.706,4.706,0,0,1-1.685.3,5.051,5.051,0,0,1-2.623-.757,7.207,7.207,0,0,1-2.437-2.535,9.886,9.886,0,0,1-.855-1.855,9.428,9.428,0,0,1-.474-2.046c-.057-.557-.077-1.118-.108-1.675,0-.093-.021-.144-.139-.16a1.6,1.6,0,0,1-1.3-.995,3.383,3.383,0,0,1,1.01-4.056,7.716,7.716,0,0,1,2.757-1.422,14.425,14.425,0,0,1,3.731-.588c.119,0,.139-.041.149-.139a9.868,9.868,0,0,1,1-3.777c.046-.088.1-.175.149-.263a.632.632,0,0,1,.557-.335,2.509,2.509,0,0,1,1.721.51.764.764,0,0,1,.144.144.369.369,0,0,1-.041.567,10.01,10.01,0,0,0-1.664,2.025c-.206.356-.356.732-.531,1.1a1.493,1.493,0,0,0-.046.144Z" transform="translate(-3.698 -81.53)" fill="#b6b2b3"/>
            </g>
          </g>
          <path id="Path_2637" data-name="Path 2637" d="M179.826,120.953a36.4,36.4,0,0,1,3.179-2.437,12.025,12.025,0,0,1,6.766-2.37,6.256,6.256,0,0,1,6.5,4.6,11.969,11.969,0,0,1-.675,8.121,19.669,19.669,0,0,1-6.632,8.255c-.474.34-.474.608-.134,1.015a20.624,20.624,0,0,0,5.411,5.143,7.856,7.856,0,0,0,1.283.742,2.707,2.707,0,0,1,1.9,2.164,5.365,5.365,0,0,1-.2,2.912,4.617,4.617,0,0,1-5.751,2.839,10.139,10.139,0,0,1-4.468-2.5,23.882,23.882,0,0,1-6.024-7.781.582.582,0,0,0-.742-.407,6.876,6.876,0,0,1-1.69.2c-.273,0-.407.067-.407.407a17.333,17.333,0,0,0,2.1,7.039,1.34,1.34,0,0,1,.067,1.015,6.845,6.845,0,0,1-3.386,4.262,8.546,8.546,0,0,1-5.885,1.283,2.456,2.456,0,0,1-2.164-1.489,21.09,21.09,0,0,1-1.422-5.751,78.033,78.033,0,0,1-.067-16.377,63.485,63.485,0,0,1,2.3-13.331c.2-.608.474-1.216.675-1.9a2.845,2.845,0,0,1,2.5-1.963,7.65,7.65,0,0,1,6.7,2.164,2.458,2.458,0,0,1,.675,2.5l-.407,1.623ZM178.2,136.382a1.345,1.345,0,0,0,.407-.273,14.868,14.868,0,0,0,5.617-5.957,6.629,6.629,0,0,0,.742-2.571,2.333,2.333,0,0,0-2.911-2.571,9.78,9.78,0,0,0-2.705.948,1.36,1.36,0,0,0-.742,1.082l-.474,4.329a30.937,30.937,0,0,0-.2,5.076.512.512,0,0,1,.273-.067Z" transform="translate(-80.936 -95.424)" fill="#a89e9e"/>
          <path id="Path_2638" data-name="Path 2638" d="M232.384,171.84a3.99,3.99,0,0,1,4.061,3.855,3.935,3.935,0,0,1-4.061,3.788,3.875,3.875,0,0,1-3.994-3.788A3.927,3.927,0,0,1,232.384,171.84Z" transform="translate(-110.701 -123.204)" fill="#a89e9e"/>
          <path id="Path_2639" data-name="Path 2639" d="M290.846,134.836a54.733,54.733,0,0,0-4.262,7.781c-1.355,2.911-2.639,5.885-3.788,8.863-.608,1.489-1.356,2.773-3.18,3.18a3.453,3.453,0,0,1-3.313-.814,9.549,9.549,0,0,1-2.5-4.4,42.8,42.8,0,0,1,.675-24.632,15.237,15.237,0,0,1,1.757-3.247,3.823,3.823,0,0,1,4.468-1.489,4.071,4.071,0,0,1,3.386,3.788c.067,4.4-.2,8.73-.407,13.125a8.26,8.26,0,0,1-.067,1.216c.34-.273.34-.541.474-.742a54.375,54.375,0,0,1,8.6-14.207,12.418,12.418,0,0,1,3.994-3.247c2.164-1.082,6.091.067,6.967,2.164a2.239,2.239,0,0,1,.067,1.149,50.733,50.733,0,0,0-1.963,17.727,27.969,27.969,0,0,0,1.963,9.678.875.875,0,0,1,0,.814,3.535,3.535,0,0,1-2.164,2.231,11.89,11.89,0,0,1-5.55.541,3.842,3.842,0,0,1-2.911-1.9,13.93,13.93,0,0,1-1.9-5.55,43.088,43.088,0,0,1-.34-11.775v-.273Z" transform="translate(-131.988 -97.883)" fill="#a89e9e"/>
          <path id="Path_2640" data-name="Path 2640" d="M366.065,154.508a16.252,16.252,0,0,1-13.058.273c-6.024-2.705-8.456-11.3-8.523-18.335a44.75,44.75,0,0,1,1.623-13.4,14.65,14.65,0,0,1,1.49-3.314,1.952,1.952,0,0,1,1.355-.948c2.5-.273,4.87-.067,6.833,1.69a3.036,3.036,0,0,1,1.015,2.839c-.742,4.468-1.69,9.137-1.283,13.666.273,2.37.407,5.483,2.773,7.915a3.648,3.648,0,0,0,5.344-1.283,9.694,9.694,0,0,0,1.015-4.535,41.308,41.308,0,0,0-2.705-16.171,1.548,1.548,0,0,1,.474-1.69,7.83,7.83,0,0,1,3.045-1.829,10.531,10.531,0,0,1,4.329-.608,1.963,1.963,0,0,1,1.623,1.082,28.009,28.009,0,0,1,3.112,11.435c.742,8.8-.608,19.216-8.457,23.21Z" transform="translate(-166.966 -97.442)" fill="#a89e9e"/>
          <path id="Path_2641" data-name="Path 2641" d="M429.626,140.351a7.478,7.478,0,0,1-5.751,2.03c-3.314-.134-5.952-1.9-8.121-4.4a19.974,19.974,0,0,1-4.128-9.2,34.735,34.735,0,0,1-.608-5.277,44.4,44.4,0,0,1,.34-9c.134-.541,0-.814-.608-.814a3.013,3.013,0,0,1-1.829-.608,1.461,1.461,0,0,1-.2-2.437,3.42,3.42,0,0,1,2.3-1.015c1.082-.067,1.49-.675,1.757-1.69a50.7,50.7,0,0,1,3.855-10.42,7,7,0,0,1,7.715-3.855,7.158,7.158,0,0,1,4.87,3.247,3.051,3.051,0,0,1,0,3.52,31.785,31.785,0,0,0-3.385,8.121c-.134.407,0,.541.407.608a9.205,9.205,0,0,1,2.638.881,1.96,1.96,0,0,1,1.149,1.69,1.4,1.4,0,0,1-.742,1.216,10.373,10.373,0,0,1-3.453.675,1.369,1.369,0,0,0-1.283,1.216,38.369,38.369,0,0,0,.541,13.6,11.828,11.828,0,0,0,.814,2.5,1.325,1.325,0,0,0,2.03.541,1.259,1.259,0,0,0,.474-1.283.846.846,0,0,1,.273-.881c.34-.2.608,0,.881.134a1.454,1.454,0,0,1,.608.474A7.777,7.777,0,0,1,429.626,140.351Z" transform="translate(-197.83 -85.258)" fill="#a89e9e"/>
        </g>
        <g id="Group_4089" data-name="Group 4089" transform="translate(1.669 35.817)">
          <g id="Group_4086" data-name="Group 4086" transform="translate(79.886 3.53)">
            <path id="Path_2642" data-name="Path 2642" d="M167.681,151.752a11.606,11.606,0,0,1-1.84-.144,6.594,6.594,0,0,1-5.375-3.942,24.518,24.518,0,0,1-1.7-6.735c0-.021-.005-.041-.005-.062A79.145,79.145,0,0,1,158.678,124a64.542,64.542,0,0,1,2.422-13.9c.01-.026.016-.052.026-.077.1-.3.216-.613.335-.922.113-.294.217-.567.289-.8.01-.041.026-.082.036-.119a6.95,6.95,0,0,1,5.741-4.751,11.784,11.784,0,0,1,2.025-.18,11.919,11.919,0,0,1,8.054,3.308c.041.041.088.077.129.119a14.8,14.8,0,0,1,6.977-1.855h.227a10.272,10.272,0,0,1,10.193,7.446c.01.041.026.082.036.119a15.821,15.821,0,0,1-.809,10.677,21.665,21.665,0,0,1-4.973,7.359,10.348,10.348,0,0,0,1.891,1.474c.062.036.129.077.191.119.165.108.355.237.484.309a6.773,6.773,0,0,1,4.36,4.963c.021.088.041.17.062.258a9.413,9.413,0,0,1-.361,5.1.369.369,0,0,1-.021.051,8.681,8.681,0,0,1-8.2,5.72,9.411,9.411,0,0,1-2.406-.314,13.832,13.832,0,0,1-6.132-3.375l-.144-.129a11.117,11.117,0,0,1-4.689,5.194,12.911,12.911,0,0,1-6.725,1.969Z" transform="translate(-158.272 -91.955)" fill="#fff"/>
            <path id="Path_2643" data-name="Path 2643" d="M227.522,175.019a7.971,7.971,0,1,1,0-15.939,7.973,7.973,0,1,1,0,15.939Z" transform="translate(-187.895 -119.019)" fill="#fff"/>
            <path id="Path_2644" data-name="Path 2644" d="M270.369,150.227a7.44,7.44,0,0,1-5.117-2.01,13.333,13.333,0,0,1-3.607-6.081c-.01-.031-.021-.062-.031-.088A41.01,41.01,0,0,1,259.97,129.7v-.062a40.808,40.808,0,0,1,2.391-14.388c.016-.036.026-.072.041-.108a18.9,18.9,0,0,1,2.216-4.061c.026-.036.052-.072.083-.108a7.922,7.922,0,0,1,6.39-3.288,8.573,8.573,0,0,1,2.458.371,8.244,8.244,0,0,1,6.132,5.854c.4-.5.8-.984,1.216-1.458a.258.258,0,0,1,.036-.041,16.119,16.119,0,0,1,5.23-4.169,8.514,8.514,0,0,1,3.757-.814c3.2,0,7.3,1.6,8.776,5.117.041.1.077.2.113.3a6.351,6.351,0,0,1,.227,3.154,4.7,4.7,0,0,1-.144.6,45.161,45.161,0,0,0-1.716,15.779,23.642,23.642,0,0,0,1.546,7.926,5.075,5.075,0,0,1,.026,4.231,7.6,7.6,0,0,1-4.545,4.468,15.594,15.594,0,0,1-5.313.9,14.473,14.473,0,0,1-2.108-.149,7.938,7.938,0,0,1-5.8-3.684,13.874,13.874,0,0,1-1.768-3.788q-.417,1.028-.8,2.025l-.031.077a8.558,8.558,0,0,1-6.106,5.638.146.146,0,0,0-.046.01,8.909,8.909,0,0,1-1.85.2Z" transform="translate(-207.563 -93.985)" fill="#fff"/>
            <path id="Path_2645" data-name="Path 2645" d="M349.929,150.75a19.869,19.869,0,0,1-7.8-1.551c-.021-.01-.041-.015-.062-.026-3.69-1.659-6.638-4.988-8.529-9.631a33.73,33.73,0,0,1-2.293-12.089,47.759,47.759,0,0,1,1.736-14.243,18.423,18.423,0,0,1,1.927-4.329c.051-.082.1-.165.16-.242a5.989,5.989,0,0,1,4.3-2.674,19.461,19.461,0,0,1,2.108-.124,11.388,11.388,0,0,1,7.859,2.829c.057.052.113.1.17.16.211.211.4.423.577.634a11.924,11.924,0,0,1,4.463-2.69c.021-.01.046-.016.072-.026a15.146,15.146,0,0,1,4.813-.845c.382,0,.763.015,1.139.052a6.1,6.1,0,0,1,4.834,3.1c.041.067.077.134.113.2a31.356,31.356,0,0,1,3.514,12.821c1.108,13.223-2.638,22.72-10.559,26.745a19.152,19.152,0,0,1-8.539,1.932Zm.6-22.653a19.788,19.788,0,0,0,.376,2.5c.015-.2.021-.4.021-.613v-.155a35.389,35.389,0,0,0-.407-6.756,25.194,25.194,0,0,0-.057,4.442c.021.191.041.386.062.582Z" transform="translate(-242.105 -93.215)" fill="#fff"/>
            <path id="Path_2646" data-name="Path 2646" d="M414.032,137.479c-.16,0-.319,0-.479-.005h-.041c-4.112-.17-7.8-2.1-10.956-5.756a23.793,23.793,0,0,1-4.962-10.842.773.773,0,0,1-.021-.108,38.615,38.615,0,0,1-.665-5.73,45.9,45.9,0,0,1,.057-6.73c-.041-.026-.082-.052-.119-.072-.072-.046-.144-.093-.216-.144a5.843,5.843,0,0,1-2.51-4.375,5.732,5.732,0,0,1,1.912-4.571l.026-.026a8.057,8.057,0,0,1,3.01-1.768,54.794,54.794,0,0,1,3.736-9.734,11,11,0,0,1,10.059-6.277,11.345,11.345,0,0,1,2.056.186c.067.01.129.026.2.041a11.111,11.111,0,0,1,7.415,5.1.463.463,0,0,1,.031.052,7.144,7.144,0,0,1-.082,7.864,21.048,21.048,0,0,0-1.7,3.478c.052.031.1.062.149.093a6.074,6.074,0,0,1,3.009,5.174c0,.155-.01.309-.026.469a5.568,5.568,0,0,1-2.834,4.4,3.555,3.555,0,0,1-.49.237,12.008,12.008,0,0,1-2.246.675,32.756,32.756,0,0,0,.191,7.07h.134a5.151,5.151,0,0,1,2.463.66,5.7,5.7,0,0,1,2.1,1.721,11.829,11.829,0,0,1-.948,15.717,11.4,11.4,0,0,1-8.245,3.21Z" transform="translate(-272.579 -81.34)" fill="#fff"/>
          </g>
          <g id="Group_4087" data-name="Group 4087" transform="translate(16.579 4.509)">
            <path id="Path_2647" data-name="Path 2647" d="M71.9,146.769c-.1,0-.211,0-.32-.005a14.747,14.747,0,0,1-10.224-4.385,13.718,13.718,0,0,1-4.226-1.041,57.383,57.383,0,0,1-5.766-3.056l-.855-.495a8.067,8.067,0,0,1-2.185-1.716c-.093-.1-.206-.222-.366-.376q-.3-.3-.557-.6a21.134,21.134,0,0,1-5.493-.7,10.6,10.6,0,0,1-2.891-1.263,5.864,5.864,0,0,1-.129-10.327,9.194,9.194,0,0,1,1.412-.778c-.088-.082-.17-.17-.253-.258a17.937,17.937,0,0,1-4.066-7.137,13.207,13.207,0,0,1,2.03-11.667c1.7-2.2,4.267-2.54,5.648-2.721l.077-.01a18.852,18.852,0,0,1,2.51-.17,17.953,17.953,0,0,1,3.37.32,17.956,17.956,0,0,1,5.169,1.639,18.321,18.321,0,0,1,3.746,2.412,9.721,9.721,0,0,1,4.251-1.072,5.734,5.734,0,0,1,5.164,2.772,5.347,5.347,0,0,1,.716,3.051,5.26,5.26,0,0,1,1.582,1.932,5.862,5.862,0,0,1-.809,6.107,10.028,10.028,0,0,1-3.705,2.958,10.759,10.759,0,0,1-2.628.886c-.082.216-.165.448-.242.706a4.583,4.583,0,0,0-.206,1.206,7.478,7.478,0,0,0,2.046,1.087,17.479,17.479,0,0,0,4.349.417,14.181,14.181,0,0,0,2.757-.2,9.2,9.2,0,0,0,4.282-2.329c2.273-2.242,2.932-4.535,2.278-7.9a5.743,5.743,0,0,0-.9-1.592c-.216-.32-.464-.68-.706-1.072-.134-.211-.35-.562-.459-.691-.376-.3-.7-.587-.979-.845-.206-.191-.443-.4-.572-.495-.093-.046-.319-.139-.49-.211a11.261,11.261,0,0,1-1.773-.855,15.924,15.924,0,0,1-4.339-22.5,5.921,5.921,0,0,1,4.911-2.556,7.52,7.52,0,0,1,1.639.191,17.077,17.077,0,0,1,5.22,2.041A4.983,4.983,0,0,1,81,85.358a6.715,6.715,0,0,1,2.736.66l.149.067A11.533,11.533,0,0,1,86.3,87.393a22.645,22.645,0,0,1,5.272,5.251,4.234,4.234,0,0,1,3.52,2.283c.134.129.283.283.433.459a16.294,16.294,0,0,1,1.618,2.329,52.483,52.483,0,0,1,2.556,5.112l.155.345a24.139,24.139,0,0,1,2.18,8.054,21.6,21.6,0,0,1-.278,5.833,25.819,25.819,0,0,1-2.979,7.287,34.747,34.747,0,0,1-8.441,10.595,33.209,33.209,0,0,1-12.28,6.122,5.633,5.633,0,0,1-.83,2.984,6.042,6.042,0,0,1-5.328,2.726h0Z" transform="translate(-35.421 -83.24)" fill="#fff"/>
            <path id="Path_2648" data-name="Path 2648" d="M104.063,115.528a20.181,20.181,0,0,0-1.814-6.637,51.562,51.562,0,0,0-2.5-5.05,13.289,13.289,0,0,0-1.211-1.757c-.258-.3-.958-.8-.958-1.247,0,2.319.088,4.324-.974,6.462.294-5.72-2.448-9.5-6.565-12.527a6.972,6.972,0,0,0-1.525-.809,2.753,2.753,0,0,0-1.474-.381c-.624.155-.026,1.041-.551,1.5a12.113,12.113,0,0,0-6.441-3.545,1.878,1.878,0,0,0-2.236.747,11.7,11.7,0,0,0,3.149,16.377c.752.464,1.659.649,2.391,1.144.66.443,1.216,1.067,1.855,1.561a6.444,6.444,0,0,1,1.4,1.752c.845,1.36,1.855,2.489,2.169,4.1.9,4.633-.093,8.4-3.458,11.724a13.362,13.362,0,0,1-6.246,3.427,24.029,24.029,0,0,1-9.569-.356,11.721,11.721,0,0,1-3.277-1.788,4.173,4.173,0,0,1-.995-.979,6.179,6.179,0,0,1-.16-4.746,12.879,12.879,0,0,1,.7-1.829,3.583,3.583,0,0,1,.665-1.025,4.777,4.777,0,0,1,.773-.588c.041-.026.077-.057.119-.082a5.778,5.778,0,0,0,2.824-.629c1.876-.907,3.015-2.432,2.546-3.412s-2.376-1.036-4.251-.129a5.545,5.545,0,0,0-2.345,1.969c-.788.6-1.886-.521-1.108-1.2a8.337,8.337,0,0,1,1.649-1.077,6.654,6.654,0,0,0,1.613-.675c1.8-1.041,2.829-2.649,2.288-3.587s-2.448-.855-4.251.186a6.515,6.515,0,0,0-1.6,1.283.586.586,0,0,1-.819-.036,11.57,11.57,0,0,0-4.679-3.849,13.512,13.512,0,0,0-4.019-1.268,13.884,13.884,0,0,0-4.607-.134c-1.051.139-2.288.283-2.932,1.123a9.055,9.055,0,0,0-1.34,7.823,13.911,13.911,0,0,0,3.128,5.519,17.581,17.581,0,0,0,3.02,1.9c.716.453.763,1.618.758,2.577a2.075,2.075,0,0,1-.2,1.015c-.412.624-1.4.6-2.056.685a13.439,13.439,0,0,0-3.406,1.242c-1.546,1.046-1.567,2.247.015,3.246a6.49,6.49,0,0,0,1.747.752,24.106,24.106,0,0,0,7.348.495,1.7,1.7,0,0,0-.263.474c-.088.459.531,1.118.83,1.417a5.656,5.656,0,0,0,1.67,1.422,66.515,66.515,0,0,0,6.2,3.334c2.319,1,3.978.49,4.736,1.19,2.654,2.468,4.494,3.751,8.183,3.885,2.02.072,2.582-1.159,1.654-2.994-.423-.84-1.438-.953-1.608-1.994.562-.108,4.071-.273,4.607-.417a29.815,29.815,0,0,0,11.286-5.483,30.445,30.445,0,0,0,7.41-9.379,21.724,21.724,0,0,0,2.51-6.024,17.5,17.5,0,0,0,.216-4.684Z" transform="translate(-40.515 -87.216)" fill="#fcb943"/>
            <ellipse id="Ellipse_3" data-name="Ellipse 3" cx="1.144" cy="1.144" rx="1.144" ry="1.144" transform="translate(12.491 24.246)" fill="#fcb943"/>
          </g>
          <g id="vHPzLs.tif-2" data-name="vHPzLs.tif">
            <g id="Group_4088" data-name="Group 4088">
              <path id="Path_2649" data-name="Path 2649" d="M15.473,103.075a9.087,9.087,0,0,1-4.725-1.36,11.226,11.226,0,0,1-3.8-3.906A14.286,14.286,0,0,1,5.1,92.552,5.945,5.945,0,0,1,3.9,90.769a7.586,7.586,0,0,1,2.123-8.915,11.594,11.594,0,0,1,4.184-2.2c.474-.144.953-.268,1.448-.371a11.174,11.174,0,0,1,.819-1.958c.046-.088.093-.17.139-.253a.45.45,0,0,0-.031.067,4.849,4.849,0,0,1,4.025-2.633c.17-.01.325-.015.484-.015a6.681,6.681,0,0,1,4.025,1.345,4.994,4.994,0,0,1,.917.892,4.627,4.627,0,0,1,.958,3.741,11.144,11.144,0,0,1,1.335.8,7.779,7.779,0,0,1,3.38,5.081A7.385,7.385,0,0,1,27,91.14a5.953,5.953,0,0,1-1.025,1.4c-.041.289-.1.582-.155.871a14.311,14.311,0,0,1-1.056,3.18,13.147,13.147,0,0,1-1.17,2.025,11.313,11.313,0,0,1-2.443,2.535,9.657,9.657,0,0,1-2.556,1.376,8.951,8.951,0,0,1-3.025.541h-.088Z" transform="translate(-3.249 -74.49)" fill="#fff"/>
              <path id="Path_2650" data-name="Path 2650" d="M19.69,87.109c.634.088,1.252.149,1.86.258a8.892,8.892,0,0,1,3.545,1.36,3.636,3.636,0,0,1,1.634,2.34,3.144,3.144,0,0,1-.278,2.072,1.571,1.571,0,0,1-1.226.871c-.1.016-.134.057-.134.144v.5a11.038,11.038,0,0,1-.232,1.881,10.037,10.037,0,0,1-.742,2.242,9.886,9.886,0,0,1-.8,1.391,6.909,6.909,0,0,1-1.52,1.582,5.447,5.447,0,0,1-1.438.778,4.7,4.7,0,0,1-1.644.294,4.893,4.893,0,0,1-2.556-.737,7.09,7.09,0,0,1-2.381-2.474,9.617,9.617,0,0,1-.835-1.814,8.963,8.963,0,0,1-.464-1.994c-.057-.541-.077-1.087-.108-1.634,0-.088-.021-.144-.134-.16a1.569,1.569,0,0,1-1.273-.974,3.3,3.3,0,0,1,.989-3.958,7.55,7.55,0,0,1,2.69-1.386,13.962,13.962,0,0,1,3.638-.572c.119,0,.139-.041.144-.134a9.664,9.664,0,0,1,.974-3.685c.046-.088.1-.17.144-.258a.61.61,0,0,1,.541-.325,2.429,2.429,0,0,1,1.68.5.924.924,0,0,1,.139.144.365.365,0,0,1-.041.557A9.71,9.71,0,0,0,20.241,85.9c-.2.345-.35.716-.52,1.077a1.06,1.06,0,0,0-.041.144Z" transform="translate(-6.847 -78.477)" fill="#fcb943"/>
            </g>
          </g>
          <path id="Path_2651" data-name="Path 2651" d="M178.778,116.961a34.654,34.654,0,0,1,3.1-2.376,11.765,11.765,0,0,1,6.606-2.314,6.1,6.1,0,0,1,6.338,4.488,11.685,11.685,0,0,1-.66,7.926,19.165,19.165,0,0,1-6.472,8.054c-.464.33-.464.593-.134.989a20.131,20.131,0,0,0,5.282,5.019,7.7,7.7,0,0,0,1.257.727,2.631,2.631,0,0,1,1.85,2.113,5.156,5.156,0,0,1-.2,2.839,4.51,4.51,0,0,1-5.612,2.772,9.861,9.861,0,0,1-4.36-2.443,23.392,23.392,0,0,1-5.88-7.6.57.57,0,0,0-.727-.4,6.574,6.574,0,0,1-1.649.2c-.263,0-.4.067-.4.4a16.927,16.927,0,0,0,2.046,6.869,1.3,1.3,0,0,1,.067.989,6.682,6.682,0,0,1-3.3,4.159,8.361,8.361,0,0,1-5.746,1.257,2.409,2.409,0,0,1-2.113-1.453,20.494,20.494,0,0,1-1.386-5.612,76.355,76.355,0,0,1-.067-15.98,61.538,61.538,0,0,1,2.247-13.012c.2-.593.464-1.19.66-1.85a2.777,2.777,0,0,1,2.443-1.917,7.466,7.466,0,0,1,6.539,2.113,2.4,2.4,0,0,1,.66,2.443l-.4,1.587Zm-1.587,15.058a1.469,1.469,0,0,0,.4-.263,14.541,14.541,0,0,0,5.483-5.813,6.516,6.516,0,0,0,.727-2.51,2.275,2.275,0,0,0-2.839-2.51,9.783,9.783,0,0,0-2.644.922,1.324,1.324,0,0,0-.727,1.056l-.464,4.226a30.613,30.613,0,0,0-.2,4.952.5.5,0,0,1,.263-.067Z" transform="translate(-82.248 -92.035)" fill="#fcb943"/>
          <path id="Path_2652" data-name="Path 2652" d="M230.066,166.63a3.893,3.893,0,0,1,3.963,3.762,3.842,3.842,0,0,1-3.963,3.7,3.779,3.779,0,0,1-3.9-3.7A3.83,3.83,0,0,1,230.066,166.63Z" transform="translate(-111.295 -119.149)" fill="#fcb943"/>
          <path id="Path_2653" data-name="Path 2653" d="M287.123,130.52a53.17,53.17,0,0,0-4.159,7.6c-1.319,2.839-2.577,5.746-3.7,8.652-.593,1.453-1.319,2.705-3.1,3.1a3.383,3.383,0,0,1-3.236-.794,9.344,9.344,0,0,1-2.443-4.293,37.1,37.1,0,0,1-1.453-11.095,37.586,37.586,0,0,1,2.113-12.945,14.739,14.739,0,0,1,1.716-3.169,3.734,3.734,0,0,1,4.359-1.453,3.969,3.969,0,0,1,3.3,3.7c.067,4.293-.2,8.518-.4,12.811a7.935,7.935,0,0,1-.067,1.19c.33-.263.33-.531.464-.727a53.239,53.239,0,0,1,8.389-13.867,12.192,12.192,0,0,1,3.9-3.169c2.113-1.056,5.942.067,6.8,2.113a2.143,2.143,0,0,1,.067,1.123,49.547,49.547,0,0,0-1.917,17.3,27.261,27.261,0,0,0,1.917,9.446.833.833,0,0,1,0,.794,3.462,3.462,0,0,1-2.113,2.18,11.674,11.674,0,0,1-5.416.531,3.756,3.756,0,0,1-2.839-1.85,13.537,13.537,0,0,1-1.85-5.416,41.844,41.844,0,0,1-.33-11.492v-.263Z" transform="translate(-132.068 -94.442)" fill="#fcb943"/>
          <path id="Path_2654" data-name="Path 2654" d="M360.539,149.712a15.838,15.838,0,0,1-12.744.263c-5.88-2.644-8.255-11.028-8.322-17.9A43.486,43.486,0,0,1,341.06,119a14.185,14.185,0,0,1,1.453-3.236,1.89,1.89,0,0,1,1.319-.922c2.442-.263,4.756-.067,6.668,1.649a2.954,2.954,0,0,1,.99,2.772c-.727,4.36-1.649,8.915-1.252,13.342.263,2.314.4,5.349,2.705,7.725a3.56,3.56,0,0,0,5.215-1.258,9.424,9.424,0,0,0,.99-4.426A40.332,40.332,0,0,0,356.5,118.86a1.514,1.514,0,0,1,.464-1.649,7.618,7.618,0,0,1,2.973-1.783,10.205,10.205,0,0,1,4.226-.593,1.918,1.918,0,0,1,1.587,1.056,27.374,27.374,0,0,1,3.04,11.162c.727,8.585-.592,18.758-8.255,22.653Z" transform="translate(-166.207 -94.001)" fill="#fcb943"/>
          <path id="Path_2655" data-name="Path 2655" d="M422.585,135.895a7.286,7.286,0,0,1-5.612,1.979c-3.236-.134-5.813-1.85-7.925-4.293a19.5,19.5,0,0,1-4.03-8.982,34.313,34.313,0,0,1-.592-5.153,43.371,43.371,0,0,1,.33-8.781c.134-.531,0-.794-.593-.794a2.887,2.887,0,0,1-1.783-.593,1.425,1.425,0,0,1-.2-2.376,3.34,3.34,0,0,1,2.247-.989c1.056-.067,1.453-.66,1.716-1.649a49.7,49.7,0,0,1,3.762-10.172,6.835,6.835,0,0,1,7.529-3.762,6.993,6.993,0,0,1,4.756,3.169,2.974,2.974,0,0,1,0,3.432,30.957,30.957,0,0,0-3.3,7.926c-.134.4,0,.531.4.593a8.986,8.986,0,0,1,2.577.861,1.914,1.914,0,0,1,1.123,1.649,1.37,1.37,0,0,1-.727,1.19,10.167,10.167,0,0,1-3.37.66,1.349,1.349,0,0,0-1.258,1.19,37.518,37.518,0,0,0,.531,13.275,11.533,11.533,0,0,0,.794,2.443,1.294,1.294,0,0,0,1.979.531,1.231,1.231,0,0,0,.464-1.257.831.831,0,0,1,.263-.861c.33-.2.593,0,.861.134a1.383,1.383,0,0,1,.592.464,7.6,7.6,0,0,1-.526,10.172Z" transform="translate(-196.339 -82.111)" fill="#fcb943"/>
        </g>
      </g>
    </g>
  </g>
</svg>
