<svg xmlns="http://www.w3.org/2000/svg" xmlns:xlink="http://www.w3.org/1999/xlink" width="125" height="81.451" viewBox="0 0 125 81.451">
  <defs>
    <clipPath id="clip-path">
      <rect id="Rectangle_156" data-name="Rectangle 156" width="125" height="81.451" fill="#952323"/>
    </clipPath>
  </defs>
  <g id="Group_145" data-name="Group 145" transform="translate(-13 -5)">
    <g id="Group_144" data-name="Group 144" transform="translate(13 5)" clip-path="url(#clip-path)">
      <path id="Path_48" data-name="Path 48" d="M118.7,27.034a6.066,6.066,0,0,1,5.779,6.3V86.131a6.066,6.066,0,0,1-5.779,6.3H6.3a6.065,6.065,0,0,1-5.779-6.3V33.337a6.065,6.065,0,0,1,5.779-6.3Zm0-.564H6.3A6.6,6.6,0,0,0,0,33.337V86.131A6.6,6.6,0,0,0,6.3,93H118.7a6.6,6.6,0,0,0,6.3-6.867V33.337a6.6,6.6,0,0,0-6.3-6.867" transform="translate(0 -11.547)" fill="#952323"/>
      <path id="Path_49" data-name="Path 49" d="M.756,20.1V4.132A3.592,3.592,0,0,1,4.307.5H35.641a3.592,3.592,0,0,1,3.551,3.632V6.249" transform="translate(-0.365 -0.218)" fill="#952323"/>
      <path id="Path_50" data-name="Path 50" d="M118.7,15.391a6.066,6.066,0,0,1,5.779,6.3V81.052a6.065,6.065,0,0,1-5.779,6.3H6.3a6.065,6.065,0,0,1-5.779-6.3V21.694a6.065,6.065,0,0,1,5.779-6.3Zm0-.564H6.3A6.6,6.6,0,0,0,0,21.694V81.052a6.6,6.6,0,0,0,6.3,6.867H118.7a6.6,6.6,0,0,0,6.3-6.867V21.694a6.6,6.6,0,0,0-6.3-6.867" transform="translate(0 -6.468)" fill="#952323"/>
      <line id="Line_55" data-name="Line 55" y2="4.445" transform="translate(38.827 3.913)" fill="none"/>
    </g>
  </g>
</svg>
