<?xml version="1.0" encoding="UTF-8"?>
<svg id="Logo" xmlns="http://www.w3.org/2000/svg" viewBox="0 0 386.91 78.03">
  <defs>
    <style>
      .cls-1 {
        fill: #fff;
        stroke-width: 0px;
      }
    </style>
  </defs>
  <path id="Icon" class="cls-1" d="m24.89,21.32v9.61c-.27,0-.43-.14-.49-.19l-12.22-12.21s-.59-.54-.52-1.32l-.02-8.41c.01-.12.11-.25.25-.27.09-.02.2-.01.3.09l12.7,12.7Zm8.54-8.54l-4.92,4.92,4.92,4.98v-9.9ZM8.61,54.81c-.1.09-.11.21-.09.3.03.13.15.23.27.25l8.41-.02c.78.07,1.32-.52,1.32-.52l12.2-12.22c.05-.06.2-.22.2-.49h-9.61l-12.7,12.7Zm4.17-21.23l4.92,4.92,4.98-4.92h-9.9Zm41.98,24.91c.09.1.21.11.3.09.13-.03.23-.15.25-.27l-.02-8.41c.07-.78-.52-1.32-.52-1.32l-12.22-12.2c-.06-.05-.22-.19-.49-.19v9.61l12.7,12.69Zm-21.23-4.16l4.93-4.92-4.92-4.98v9.9ZM58.5,12.29c.1-.09.11-.21.09-.3-.03-.13-.15-.23-.27-.25l-8.41.02c-.78-.07-1.32.52-1.32.52l-12.2,12.22c-.05.06-.2.22-.2.49h9.61l12.7-12.7Zm-4.16,21.24l-4.92-4.93-4.98,4.92h9.9Zm-25.84-15.82l-7.72-7.72h0c-.35-.32-.54-.77-.54-1.23V.32c0-.12.1-.26.24-.29.08-.02.2-.02.31.09l12.63,12.67-4.92,4.92Zm4.92,4.97l-4.92-4.98-3.62,3.61v9.61c.34,0,.53-.25.56-.27l7.98-7.97ZM46.62.32c0-.22-.18-.32-.32-.32-.07,0-.16.03-.24.11l-12.63,12.67v9.9l12.45-12.45.03-.03c.41-.35.71-.87.71-1.34,0-.01,0-8.54,0-8.54ZM12.78,33.58L.11,46.21C-.01,46.33,0,46.45.02,46.52c.03.14.17.24.29.24h8.44c.47,0,.92-.2,1.23-.54h0l7.72-7.72-4.92-4.92Zm9.9,0l-4.98,4.92,3.61,3.62h9.61c0-.34-.25-.53-.27-.56l-7.97-7.98ZM.32,20.38c-.22,0-.32.18-.32.32,0,.07.03.16.11.24l12.67,12.64h9.9l-12.45-12.46-.03-.03c-.35-.41-.87-.71-1.34-.71H.32Zm33.21,33.95l12.63,12.67c.12.12.24.11.31.09.14-.03.24-.17.24-.29v-8.44c0-.47-.2-.92-.55-1.23h0l-7.72-7.72-4.91,4.92Zm0-9.91l4.92,4.98,3.62-3.61v-9.61c-.34,0-.53.25-.56.27l-7.98,7.97Zm-13.2,22.37c0,.22.18.32.32.32.07,0,.16-.03.24-.11l12.64-12.67v-9.9l-12.46,12.44-.03.03c-.41.35-.71.87-.71,1.34v8.55Zm34.01-33.26l12.67-12.63c.12-.12.11-.24.09-.31-.03-.14-.17-.24-.29-.24h-8.44c-.47,0-.92.2-1.23.54h0l-7.72,7.72,4.92,4.92Zm-9.9,0l4.98-4.92-3.61-3.62h-9.61c0,.34.25.53.27.56l7.97,7.98Zm22.36,13.19c.22,0,.31-.18.31-.32,0-.07-.03-.16-.11-.24l-12.66-12.63h-9.9l12.45,12.46.03.03c.35.41.87.71,1.34.71,0,0,8.54,0,8.54,0Z"/>
  <path id="Fanshawe" class="cls-1" d="m76.42,20.32h20.08v5.28h-14.27v5.61h12.59v5.28h-12.59v10.21h-5.8v-26.38h-.01Zm30.28-.19h5.35l11.31,26.57h-6.07l-2.41-5.92h-11.15l-2.41,5.92h-5.92l11.3-26.57Zm6.11,15.53l-3.5-8.55-3.5,8.55h7Zm13.2-15.34h5.35l12.36,16.24v-16.24h5.73v26.38h-4.94l-12.78-16.77v16.77h-5.73v-26.38h.01Zm27.53,22.54l3.43-4.11c2.37,1.96,4.86,3.2,7.88,3.2,2.38,0,3.81-.94,3.81-2.49v-.08c0-1.47-.91-2.22-5.31-3.35-5.31-1.36-8.74-2.83-8.74-8.06v-.08c0-4.79,3.84-7.95,9.23-7.95,3.84,0,7.12,1.21,9.8,3.35l-3.02,4.37c-2.34-1.62-4.63-2.6-6.86-2.6s-3.39,1.02-3.39,2.3v.08c0,1.73,1.13,2.3,5.69,3.47,5.35,1.39,8.37,3.32,8.37,7.91v.08c0,5.24-3.99,8.18-9.68,8.18-4.02,0-8.05-1.4-11.21-4.22Zm25.49-22.54h5.8v10.44h10.7v-10.44h5.8v26.38h-5.8v-10.59h-10.7v10.59h-5.8v-26.38Zm36.74-.19h5.35l11.31,26.57h-6.07l-2.41-5.92h-11.15l-2.41,5.92h-5.92l11.3-26.57Zm6.11,15.53l-3.5-8.55-3.5,8.55h7Zm7.89-15.34h6.22l5.46,17.86,5.92-17.94h4.97l5.92,17.94,5.46-17.86h6.07l-9.01,26.57h-5.05l-5.95-17.26-5.95,17.26h-5.05l-9.01-26.57Zm43.37,0h19.9v5.16h-14.13v5.35h12.44v5.16h-12.44v5.54h14.32v5.16h-20.08v-26.37h-.01Z"/>
  <g id="Interactive_Media_Design" data-name="Interactive Media Design">
    <path class="cls-1" d="m76.42,73.98v-17.5h3.85v17.5h-3.85Z"/>
    <path class="cls-1" d="m92.72,73.98v-7.47c0-1.8-.85-2.72-2.3-2.72s-2.37.92-2.37,2.72v7.47h-3.8v-13.4h3.8v1.9c.88-1.12,2-2.15,3.92-2.15,2.87,0,4.55,1.9,4.55,4.97v8.67h-3.8Z"/>
    <path class="cls-1" d="m104.34,74.2c-2.32,0-3.9-.92-3.9-4.02v-6.35h-1.6v-3.25h1.6v-3.42h3.8v3.42h3.15v3.25h-3.15v5.72c0,.87.38,1.3,1.22,1.3.7,0,1.32-.18,1.87-.48v3.05c-.8.47-1.72.77-3,.77Z"/>
    <path class="cls-1" d="m122.27,68.6h-9.32c.38,1.72,1.57,2.62,3.27,2.62,1.27,0,2.2-.4,3.25-1.37l2.17,1.92c-1.25,1.55-3.05,2.5-5.47,2.5-4.02,0-7-2.82-7-6.92v-.05c0-3.82,2.72-6.97,6.62-6.97,4.47,0,6.52,3.47,6.52,7.27v.05c0,.37-.03.6-.05.95Zm-6.47-5.22c-1.57,0-2.6,1.12-2.9,2.85h5.72c-.23-1.7-1.22-2.85-2.82-2.85Z"/>
    <path class="cls-1" d="m133.02,64.3c-2.52,0-4.07,1.52-4.07,4.72v4.95h-3.8v-13.4h3.8v2.7c.77-1.85,2.02-3.05,4.27-2.95v3.97h-.2Z"/>
    <path class="cls-1" d="m142.82,73.98v-1.45c-.92,1.03-2.2,1.7-4.05,1.7-2.52,0-4.6-1.45-4.6-4.1v-.05c0-2.92,2.22-4.27,5.4-4.27,1.35,0,2.32.22,3.27.55v-.23c0-1.57-.98-2.45-2.87-2.45-1.45,0-2.47.28-3.7.72l-.95-2.9c1.47-.65,2.92-1.07,5.2-1.07,4.15,0,5.97,2.15,5.97,5.77v7.77h-3.67Zm.07-5.4c-.65-.3-1.5-.5-2.42-.5-1.62,0-2.62.65-2.62,1.85v.05c0,1.02.85,1.62,2.07,1.62,1.77,0,2.97-.97,2.97-2.35v-.67Z"/>
    <path class="cls-1" d="m156.09,74.28c-4.02,0-6.97-3.1-6.97-6.92v-.05c0-3.82,2.92-6.97,7.02-6.97,2.52,0,4.1.85,5.35,2.25l-2.32,2.5c-.85-.9-1.7-1.47-3.05-1.47-1.9,0-3.25,1.67-3.25,3.65v.05c0,2.05,1.32,3.7,3.4,3.7,1.27,0,2.15-.55,3.07-1.42l2.22,2.25c-1.3,1.42-2.8,2.45-5.47,2.45Z"/>
    <path class="cls-1" d="m168.57,74.2c-2.32,0-3.9-.92-3.9-4.02v-6.35h-1.6v-3.25h1.6v-3.42h3.8v3.42h3.15v3.25h-3.15v5.72c0,.87.38,1.3,1.22,1.3.7,0,1.32-.18,1.87-.48v3.05c-.8.47-1.72.77-3,.77Z"/>
    <path class="cls-1" d="m174.49,59.11v-3.37h4v3.37h-4Zm.1,14.87v-13.4h3.8v13.4h-3.8Z"/>
    <path class="cls-1" d="m189.49,74.08h-3.45l-5.27-13.5h4.02l3,8.97,3.02-8.97h3.95l-5.27,13.5Z"/>
    <path class="cls-1" d="m208.67,68.6h-9.32c.38,1.72,1.57,2.62,3.27,2.62,1.27,0,2.2-.4,3.25-1.37l2.17,1.92c-1.25,1.55-3.05,2.5-5.47,2.5-4.02,0-7-2.82-7-6.92v-.05c0-3.82,2.72-6.97,6.62-6.97,4.47,0,6.52,3.47,6.52,7.27v.05c0,.37-.03.6-.05.95Zm-6.47-5.22c-1.58,0-2.6,1.12-2.9,2.85h5.72c-.23-1.7-1.22-2.85-2.82-2.85Z"/>
    <path class="cls-1" d="m233.12,73.98v-11.42l-4.92,7.47h-.1l-4.87-7.4v11.35h-3.77v-17.5h4.15l4.6,7.4,4.6-7.4h4.15v17.5h-3.82Z"/>
    <path class="cls-1" d="m253.19,68.6h-9.32c.38,1.72,1.58,2.62,3.27,2.62,1.27,0,2.2-.4,3.25-1.37l2.17,1.92c-1.25,1.55-3.05,2.5-5.47,2.5-4.02,0-7-2.82-7-6.92v-.05c0-3.82,2.72-6.97,6.62-6.97,4.47,0,6.52,3.47,6.52,7.27v.05c0,.37-.03.6-.05.95Zm-6.47-5.22c-1.57,0-2.6,1.12-2.9,2.85h5.72c-.22-1.7-1.22-2.85-2.82-2.85Z"/>
    <path class="cls-1" d="m265.74,73.98v-1.92c-.92,1.25-2.2,2.17-4.17,2.17-3.12,0-6.1-2.45-6.1-6.92v-.05c0-4.47,2.92-6.92,6.1-6.92,2.02,0,3.27.92,4.17,2v-6.6h3.8v18.25h-3.8Zm.05-6.72c0-2.22-1.47-3.7-3.25-3.7s-3.27,1.45-3.27,3.7v.05c0,2.22,1.5,3.7,3.27,3.7s3.25-1.47,3.25-3.7v-.05Z"/>
    <path class="cls-1" d="m273.02,59.11v-3.37h4v3.37h-4Zm.1,14.87v-13.4h3.8v13.4h-3.8Z"/>
    <path class="cls-1" d="m288.34,73.98v-1.45c-.92,1.03-2.2,1.7-4.05,1.7-2.52,0-4.6-1.45-4.6-4.1v-.05c0-2.92,2.22-4.27,5.4-4.27,1.35,0,2.32.22,3.27.55v-.23c0-1.57-.97-2.45-2.87-2.45-1.45,0-2.47.28-3.7.72l-.95-2.9c1.47-.65,2.92-1.07,5.2-1.07,4.15,0,5.97,2.15,5.97,5.77v7.77h-3.67Zm.08-5.4c-.65-.3-1.5-.5-2.42-.5-1.62,0-2.62.65-2.62,1.85v.05c0,1.02.85,1.62,2.07,1.62,1.77,0,2.97-.97,2.97-2.35v-.67Z"/>
    <path class="cls-1" d="m310.02,73.98h-6.82v-17.5h6.82c5.5,0,9.3,3.77,9.3,8.7v.05c0,4.92-3.8,8.75-9.3,8.75Zm5.27-8.75c0-3.1-2.12-5.27-5.27-5.27h-2.97v10.55h2.97c3.15,0,5.27-2.12,5.27-5.22v-.05Z"/>
    <path class="cls-1" d="m334.79,68.6h-9.32c.37,1.72,1.57,2.62,3.27,2.62,1.28,0,2.2-.4,3.25-1.37l2.17,1.92c-1.25,1.55-3.05,2.5-5.47,2.5-4.02,0-7-2.82-7-6.92v-.05c0-3.82,2.72-6.97,6.62-6.97,4.47,0,6.52,3.47,6.52,7.27v.05c0,.37-.02.6-.05.95Zm-6.47-5.22c-1.57,0-2.6,1.12-2.9,2.85h5.72c-.22-1.7-1.22-2.85-2.82-2.85Z"/>
    <path class="cls-1" d="m342.37,74.23c-1.88,0-3.97-.62-5.75-2.02l1.62-2.5c1.45,1.05,2.97,1.6,4.22,1.6,1.1,0,1.6-.4,1.6-1v-.05c0-.82-1.3-1.1-2.77-1.55-1.87-.55-4-1.42-4-4.02v-.05c0-2.72,2.2-4.25,4.9-4.25,1.7,0,3.55.57,5,1.55l-1.45,2.62c-1.32-.77-2.65-1.25-3.62-1.25s-1.4.4-1.4.92v.05c0,.75,1.27,1.1,2.72,1.6,1.87.62,4.05,1.53,4.05,3.97v.05c0,2.97-2.22,4.32-5.12,4.32Z"/>
    <path class="cls-1" d="m350.29,59.11v-3.37h4v3.37h-4Zm.1,14.87v-13.4h3.8v13.4h-3.8Z"/>
    <path class="cls-1" d="m363.77,78.03c-2.17,0-4.22-.5-5.92-1.4l1.3-2.85c1.38.77,2.75,1.22,4.52,1.22,2.6,0,3.82-1.25,3.82-3.65v-.65c-1.12,1.35-2.35,2.17-4.37,2.17-3.12,0-5.95-2.27-5.95-6.25v-.05c0-4,2.87-6.25,5.95-6.25,2.08,0,3.3.87,4.32,2v-1.75h3.8v10.37c0,5.05-2.5,7.07-7.47,7.07Zm3.72-11.45c0-1.82-1.42-3.1-3.27-3.1s-3.25,1.28-3.25,3.1v.05c0,1.85,1.4,3.1,3.25,3.1s3.27-1.27,3.27-3.1v-.05Z"/>
    <path class="cls-1" d="m383.12,73.98v-7.47c0-1.8-.85-2.72-2.3-2.72s-2.37.92-2.37,2.72v7.47h-3.8v-13.4h3.8v1.9c.87-1.12,2-2.15,3.92-2.15,2.87,0,4.55,1.9,4.55,4.97v8.67h-3.8Z"/>
  </g>
</svg>