<svg xmlns="http://www.w3.org/2000/svg" xmlns:xlink="http://www.w3.org/1999/xlink" width="40.746" height="39.8" viewBox="0 0 40.746 39.8">
  <defs>
    <clipPath id="clip-path">
      <rect id="Rectangle_307" data-name="Rectangle 307" width="40.746" height="39.8" fill="none"/>
    </clipPath>
  </defs>
  <g id="Group_179" data-name="Group 179" transform="translate(0 0)">
    <g id="Group_155" data-name="Group 155" transform="translate(0 0)" clip-path="url(#clip-path)">
      <path id="Path_52" data-name="Path 52" d="M42.161,31.8c-2.865-1.922-5.036-4.584-7.4-7.019a52.187,52.187,0,0,0-5.317-5.234c-.247-.19-.141-.433-.113-.666a6.724,6.724,0,0,1,5.891.016c1.892,2.3,1.885,2.3,3.877.344,1.033-1.014,2.095-2,3.143-3a19.308,19.308,0,0,1,5.909.122l-8.033,7.367,7.658,7.739c-.386.884-1.171.407-1.743.423a16.666,16.666,0,0,1-3.877-.093" transform="translate(-7.41 -4.067)" fill="#fff"/>
      <path id="Path_53" data-name="Path 53" d="M16.752.043a91.245,91.245,0,0,1,6.73,6.512c.722.712,1.078.778,1.814.019C27.472,4.332,29.747,2.184,31.983,0l.365.094a20.291,20.291,0,0,1,.061,5.543A107.605,107.605,0,0,1,24.6,13.375c-.072-.061-.145-.123-.218-.184-.626-1.566-.1-3.228-.373-4.914.053-.134-.313.128-.068.094.109-.015.135.049.05.172-.67.963-1.17,2.171-2.723,1.876a21.138,21.138,0,0,1-4.563-4.708A19.476,19.476,0,0,1,16.8.152Z" transform="translate(-4.188 0)" fill="#fff"/>
      <path id="Path_54" data-name="Path 54" d="M10.742,27.238,6.011,31.8a23.569,23.569,0,0,1-5.989-.067l7.967-8.2L0,16.359a18.318,18.318,0,0,1,5.908-.093L13.352,23.7c-.195.943-1,.663-1.595.757-.814.128-1.674-.172-2.5.226.191,1.054,1.61,1.371,1.49,2.552" transform="translate(0 -4.066)" fill="#fff"/>
      <path id="Path_55" data-name="Path 55" d="M35.241,17.153l-5.891-.016a86.843,86.843,0,0,1,7.712-7.772,18.773,18.773,0,0,1,5.908.1,94.473,94.473,0,0,1-7.728,7.693" transform="translate(-7.426 -2.322)" fill="#fff"/>
      <path id="Path_56" data-name="Path 56" d="M41.418,42.086c-2.082-2.033-4.156-4.075-6.253-6.094-.415-.4-.71-1.028-1.455-.946-.3-1.952-.619-3.906.313-5.793.78-.149,1.058.529,1.461.929,2.126,2.107,4.218,4.249,6.322,6.378.411,1.661.1,3.348.169,5.021a.435.435,0,0,1-.557.5" transform="translate(-8.452 -7.396)" fill="#fff"/>
      <path id="Path_57" data-name="Path 57" d="M16.757,43.281c2.464-2.722,5.091-5.284,7.794-7.772a7.528,7.528,0,0,1,.019,6.251c-2.232,1.811-4.093,3.995-6.154,5.978-.451.435-.749,1.179-1.6,1.025a15.631,15.631,0,0,1-.058-5.483" transform="translate(-4.186 -8.984)" fill="#fff"/>
      <path id="Path_58" data-name="Path 58" d="M20.461,33.394c-2.216,2.853-5.054,5.113-7.506,7.742-.619.664-1.525.294-2.3.325-1.25.05-2.5.013-3.756.013q-.122-.266-.244-.531l7.908-7.511a6.614,6.614,0,0,1,5.9-.039" transform="translate(-1.684 -8.278)" fill="#fff"/>
      <path id="Path_59" data-name="Path 59" d="M17.607,20.218a77.035,77.035,0,0,1-7.849-7.591,19.384,19.384,0,0,1,.081-5.535c2.329,1.574,4,3.839,6.071,5.682.535.476.908,1.164,1.7,1.312a7.477,7.477,0,0,1,0,6.133" transform="translate(-2.429 -1.794)" fill="#fff"/>
      <path id="Path_60" data-name="Path 60" d="M30.675,39.965l4.505,4.452a15.781,15.781,0,0,1-.028,5.462c-1.093-.016-1.481-.993-2.111-1.593-1.814-1.73-3.552-3.54-5.32-5.318a3.017,3.017,0,0,1,2.954-3" transform="translate(-7.014 -10.112)" fill="#fff"/>
      <path id="Path_61" data-name="Path 61" d="M20.319,22.056q0-3.067,0-6.133l1.9-1.563c1.863-.1,2.406,1.451,3.279,2.586l.053.061a34.866,34.866,0,0,1-5.236,5.048" transform="translate(-5.141 -3.632)" fill="#fff"/>
      <path id="Path_62" data-name="Path 62" d="M22.529,31.989l-5.9.038-1.8-1.935a2.971,2.971,0,0,1,2.938-2.927,27.814,27.814,0,0,1,4.761,4.824" transform="translate(-3.753 -6.873)" fill="#fff"/>
      <path id="Path_63" data-name="Path 63" d="M32.582,29.262c-.145,1.929.325,3.891-.314,5.794L30.7,36.6c-1.737-.005-2.812-1.089-2.988-3.013,1.589-1.481,2.708-3.482,4.87-4.33" transform="translate(-7.012 -7.403)" fill="#fff"/>
      <path id="Path_64" data-name="Path 64" d="M27.6,35.058c.654,1.339,1.4,2.584,2.988,3.012-.01.219-.018.436-.028.654a5.371,5.371,0,0,0-2.953,3,.971.971,0,0,1-.324-.081q-.008-3.125-.018-6.251l.335-.338" transform="translate(-6.898 -8.87)" fill="#fff"/>
      <path id="Path_65" data-name="Path 65" d="M16.865,26.943a5.6,5.6,0,0,0-2.938,2.927,1.165,1.165,0,0,1-.337-.046c-.718-1.035-2.676-1.959-2.279-2.772.533-1.091,2.415-.253,3.7-.425.419-.056.861.018,1.186-.339l.666.656" transform="translate(-2.849 -6.651)" fill="#fff"/>
      <path id="Path_66" data-name="Path 66" d="M26.147,16.025c-1.3-.607-1.8-2.2-3.28-2.585a.381.381,0,0,0,0-.309c1.388-.294,1.835-1.855,3.28-2.417Z" transform="translate(-5.786 -2.71)" fill="#fff"/>
      <path id="Path_67" data-name="Path 67" d="M44.132,44.569c.881-1.79.177-3.689.388-5.525.837,1.779.247,3.65.316,5.476.019.509-.431.43-.7.049" transform="translate(-11.166 -9.878)" fill="#fff"/>
      <path id="Path_68" data-name="Path 68" d="M46.521,37.017c1.864-.261,3.777.3,5.62-.33.371.163.436.579.073.574-1.9-.026-3.825.446-5.693-.244" transform="translate(-11.771 -9.282)" fill="#fff"/>
      <path id="Path_69" data-name="Path 69" d="M52.545,16.286l-5.909-.122a9.689,9.689,0,0,1,5.909.122" transform="translate(-11.8 -3.988)" fill="#fff"/>
      <path id="Path_70" data-name="Path 70" d="M5.908,16.187,0,16.28a9.433,9.433,0,0,1,5.908-.093" transform="translate(0 -3.987)" fill="#fff"/>
      <path id="Path_71" data-name="Path 71" d="M45.582,9.38l-5.908-.095a9.5,9.5,0,0,1,5.908.095" transform="translate(-10.038 -2.242)" fill="#fff"/>
      <path id="Path_72" data-name="Path 72" d="M.029,37.042l5.989.067a10.637,10.637,0,0,1-5.989-.067" transform="translate(-0.007 -9.372)" fill="#fff"/>
      <path id="Path_73" data-name="Path 73" d="M9.755,7.092l-.081,5.534a8.911,8.911,0,0,1,.081-5.534" transform="translate(-2.346 -1.794)" fill="#fff"/>
      <path id="Path_74" data-name="Path 74" d="M37.759,5.67,37.7.127a9,9,0,0,1,.061,5.543" transform="translate(-9.538 -0.032)" fill="#fff"/>
      <path id="Path_75" data-name="Path 75" d="M16.721.2l-.094,5.56A9.123,9.123,0,0,1,16.721.2" transform="translate(-4.109 -0.051)" fill="#fff"/>
      <path id="Path_76" data-name="Path 76" d="M16.677,45.913q.029,2.742.058,5.483a8.125,8.125,0,0,1-.058-5.483" transform="translate(-4.106 -11.616)" fill="#fff"/>
      <path id="Path_77" data-name="Path 77" d="M37.669,51.386q.013-2.731.028-5.462a8.114,8.114,0,0,1-.028,5.462" transform="translate(-9.531 -11.619)" fill="#fff"/>
      <path id="Path_78" data-name="Path 78" d="M41.794,25.833H37.066c1.938-3.041,2.543-3.048,4.728,0" transform="translate(-9.378 -5.958)" fill="#fff"/>
    </g>
  </g>
</svg>
